# xmcd
#
# Track frame offsets:
#	150
#	7710
#	17977
#	27767
#	45170
#	63867
#	74037
#	83442
#	107835
#	120387
#	129982
#	145900
#	155317
#	168137
#	182035
#
# Disc length: 2595 seconds
#
# Revision: 0
# Processed by: cddbd v1.5PL3 Copyright (c) Steve Scherf et al.
# Submitted via: dBpowerAMP V4.0
#
DISCID=ad0a210f
DTITLE=Rusty McHugh and Mike Fincher - Down and Out in Paradise
DYEAR=1900
DGENRE=
TTITLE0=The Mullet Toss Song
TTITLE1=Hey Lady, Please Don't Show Those Tits
TTITLE2=I Get My Women at the Waffle House
TTITLE3=Wal Mart II -- The Return
TTITLE4=Pucker Up Dixie and Give Me a Kiss
TTITLE5=I Went Home With A Mermaid, Woke Up With a Manatee
TTITLE6=Wild Ass Women
TTITLE7=On a Bus Back to Birmingham
TTITLE8=What the F**k Were We Thinking
TTITLE9=A Bloody Mary and 2 Short Straws
TTITLE10=Down and Out in Paradise
TTITLE11=I Always Get Battered When She Gets Fried
TTITLE12=I Can't Wait 'Til I Sober Up So I Can Get Drunk Again
TTITLE13=Stuck in This Shithole With You
TTITLE14=Audience Comments
EXTD=
EXTT0=
EXTT1=
EXTT2=
EXTT3=
EXTT4=
EXTT5=
EXTT6=
EXTT7=
EXTT8=
EXTT9=
EXTT10=
EXTT11=
EXTT12=
EXTT13=
EXTT14=
PLAYORDER=
